PathFileType	4	(X/Y/Z)	RBDS011\RBDS011runT25.trc
DataRate	CameraRate	NumFrames	NumMarkers	Units	OrigDataRate	OrigDataStartFrame	OrigNumFrames
150.000000	150.000000	5	33	mm	150.000000	2812	4500
Frame#	Time	L.ASIS			L.Heel.Bottom			L.Heel.Lateral			L.Heel.Top			L.Iliac.Crest			L.MT1			L.MT5			L.PSIS			L.Shank.Bottom.Lateral			L.Shank.Bottom.Medial			L.Shank.Top.Lateral			L.Shank.Top.Medial			L.Thigh.Bottom.Lateral			L.Thigh.Bottom.Medial			L.Thigh.Top.Lateral			L.Thigh.Top.Medial			R.ASIS			R.ASY			R.Heel.Bottom			R.Heel.Lateral			R.Heel.Top			R.Iliac.Crest			R.MT1			R.MT5			R.PSIS			R.Shank.Bottom.Lateral			R.Shank.Bottom.Medial			R.Shank.Top.Lateral			R.Shank.Top.Medial			R.Thigh.Bottom.Lateral			R.Thigh.Bottom.Medial			R.Thigh.Top.Lateral			R.Thigh.Top.Medial			
		X1	Y1	Z1	X2	Y2	Z2	X3	Y3	Z3	X4	Y4	Z4	X5	Y5	Z5	X6	Y6	Z6	X7	Y7	Z7	X8	Y8	Z8	X9	Y9	Z9	X10	Y10	Z10	X11	Y11	Z11	X12	Y12	Z12	X13	Y13	Z13	X14	Y14	Z14	X15	Y15	Z15	X16	Y16	Z16	X17	Y17	Z17	X18	Y18	Z18	X19	Y19	Z19	X20	Y20	Z20	X21	Y21	Z21	X22	Y22	Z22	X23	Y23	Z23	X24	Y24	Z24	X25	Y25	Z25	X26	Y26	Z26	X27	Y27	Z27	X28	Y28	Z28	X29	Y29	Z29	X30	Y30	Z30	X31	Y31	Z31	X32	Y32	Z32	X33	Y33	Z33	

2813	18.74666666666667	2251.64964895276	993.7620420902711	914.2968311634704	2206.26809780675	31.91141799916688	1005.492770001677	2231.761085051193	43.5296197372172	965.9992074675341	2217.007650293656	80.02803918010977	1004.64625721276	2187.751396727052	1067.441155277241	880.3889035129966	2430.651576339593	48.44375154713126	1053.462817936028	2405.856131289775	39.14986027251561	938.4996482318336	2086.827625978968	1020.67152298273	990.9113908408481	2280.62960154843	170.3875029186223	942.5770292849297	2242.554244657198	179.7142308379661	980.9596156288795	2278.631776456342	248.8280437977603	923.3941283817212	2242.682482504605	258.2932261973795	962.5931563933339	2295.350919552475	618.3336697471365	881.0422894423762	2237.693600596092	591.7853905723989	916.3992338221702	2239.80429871561	712.3759526522882	866.2625392369166	2185.365966082917	688.0033052250677	899.9603440786906	2256.480949413891	977.0828077580638	1161.32055792468	1748.855405232393	247.6439256369999	1108.452534927047	1645.856323082129	407.2922261055787	1086.108855705876	1666.66637689556	389.0245323949423	1129.565572827853	1696.617029942141	408.5582558964979	1089.778938803668	2217.667840533496	1045.074318218335	1195.307094661036	1712.171662411805	192.1793315831049	1056.569528996331	1688.826428086355	218.8256033023384	1169.358048037458	2089.905843830915	1021.060970145771	1095.042380725123	1781.849311793981	388.4383021533493	1147.642485643981	1779.66197877804	419.6204180272352	1106.856361966974	1859.026258931831	418.8258124669911	1164.871436506178	1851.83469710438	451.8477071493627	1123.732343741108	2130.655584175762	587.2883467063799	1193.674520928434	2078.847156365651	596.7605094760279	1141.477819452108	2130.292801817648	695.5411974060415	1209.81734690416	2079.74563751358	705.428584284542	1164.075774445687	
2814	18.75333333333333	2250.728628617302	988.5215717980067	913.1489746339579	2190.034239986644	32.17408073873715	1006.00176340203	2215.783640931476	44.10483310262793	966.8588503171567	2201.713991103579	80.2171681320514	1006.090388928337	2186.822872169999	1060.502631806769	879.9308218792488	2415.140324477339	44.88848935948135	1054.957509233695	2390.07357441272	38.2190127036714	939.4313905285626	2085.9222908929	1014.269908758443	991.2916673323344	2270.224848284634	168.4633538723156	944.2882151012535	2231.645824900681	179.7435935098395	981.7048350401269	2271.657888770341	246.82223737171	924.3549853123412	2235.517391346984	258.1190425789538	962.88631028551	2295.123826978417	613.6873789117285	880.73691376674	2238.109194210678	587.2105865696821	917.0429685970274	2238.910084463568	707.3852888762989	865.771068653786	2185.148561723164	683.003591919925	900.3256638152142	2256.997610099822	971.4837493764051	1160.321077800297	1753.024966245187	252.6710614834465	1108.767358773069	1654.149978419069	414.7873184951479	1085.960577198001	1674.508203408692	396.2275074946978	1129.418267145913	1705.016073355418	414.8927271929334	1089.492158263478	2218.213656195599	1038.146990095826	1195.219803138165	1714.871802085138	197.8441756131654	1057.075454630838	1692.320251569827	225.5407393665817	1169.805693588157	2089.775168643032	1014.138065081515	1095.339594562338	1789.534861977181	392.3210106706992	1147.80072096856	1788.41729923257	423.4106382447604	1106.933339325525	1867.517917542298	420.3619203336201	1165.233311449625	1861.491356887439	453.4158693598772	1123.970836383187	2136.7599451365	580.8995091839595	1194.255518798632	2085.52464506837	589.0415058738065	1141.258750753169	2134.059755590398	689.2054524918877	1209.749010047648	2084.097223534419	697.8424017417373	1163.09205262262	
2815	18.76	2249.590242285797	983.3100600836771	912.0004119613744	2173.630692013178	32.6705851329865	1006.469309806969	2199.603803622361	44.95715512011093	967.6535386145224	2186.0521355245	80.64976172431146	1007.408699948389	2185.85391798312	1053.384206617341	879.4677866450447	2399.273125410708	42.4689092953431	1056.297794961188	2373.982073463835	38.00333143704014	940.3284920996074	2084.8115174002	1008.050576333557	991.6373116229355	2259.405350833521	167.141230281532	945.916819958895	2220.394851227517	180.346805718846	982.3865390777883	2264.279213477043	245.2837523467354	925.3252652462141	2228.022057651426	258.4010284326421	963.19893351087	2294.492260983041	609.0934630003669	880.5120912502954	2238.20206575096	582.7970991366453	917.9387925621389	2237.644107245669	702.4639357320581	865.2867297654199	2184.673414664867	678.1893544193985	900.8796551185169	2257.336027744567	965.7915875125282	1159.191239302874	1758.390207896904	257.0425261986048	1109.146333005693	1663.159310926117	421.1839924418768	1085.673433502359	1683.096529381552	402.4515965000177	1129.170392754304	1714.09042386176	420.3306102289377	1089.119399568576	2218.61073311119	1030.877721521226	1195.018147545745	1718.999417117257	202.7328876267005	1057.668566136103	1697.113998244779	231.4610674772762	1170.302472253618	2089.399984153167	1007.301159550551	1095.533360488783	1797.951834357305	395.611545986769	1147.958786158382	1797.865376007114	426.5671555925111	1107.00194542102	1876.599687706322	421.4738488187317	1165.648124713758	1871.697258798089	454.5041125301076	1124.25066085376	2142.991331978089	574.7917593471336	1194.973029733077	2092.208458268636	581.5511776328447	1141.325720695791	2137.915811463413	683.1111274279824	1209.74214436568	2088.468517311147	690.4367685486271	1162.262603326226	
2816	18.76666666666667	2248.252283141616	978.2528388696751	910.8658876083449	2157.171529171133	33.32377473255639	1006.876426073305	2183.328702910934	45.95859809534942	968.3404802710045	2170.149517437125	81.24833939290602	1008.532922560326	2184.775262718143	1046.22253562805	879.0047879423125	2383.183350705678	41.04399868867641	1057.387698182018	2357.693300143232	38.27975689733879	941.1040703017505	2083.51666187703	1002.130390898605	991.959625422566	2248.170762155575	166.3287363280188	947.3415531159171	2208.840788414449	181.3760482738187	982.9333670412567	2256.409206868852	244.1215531264253	926.2197081816183	2220.1259886222	258.9993327126002	963.4713759127239	2293.351095647825	604.5946025770091	880.3806867757464	2237.804341012055	578.5881131190484	919.009552148085	2235.980441351718	697.6985285708546	864.8475307339527	2183.850838125696	673.6545563129146	901.5840044004919	2257.458232414993	960.1111053506106	1157.979283349949	1764.954716782036	260.7176230505423	1109.567714482157	1672.759833928858	426.4184815552828	1085.285536459878	1692.334233622355	407.6257179898594	1128.849825704534	1723.724951135276	424.8155836085469	1088.685529777656	2218.759186036626	1023.403005894063	1194.7140034386	1724.573628785965	206.7805986214879	1058.331020409499	1703.233154223101	236.5005602652462	1170.843859311788	2088.769308416398	1000.685108726675	1095.617396846532	1807.050156866803	398.2867709819731	1148.111097964032	1807.936026384249	429.0846289770618	1107.062459480772	1886.231002544929	422.1744190663123	1166.097529276125	1882.391076336896	455.1409187555727	1124.560610235587	2149.43970820659	569.037946959261	1195.829947290314	2098.965435396651	574.3566202913032	1141.711754165908	2141.941927612566	677.324205718015	1209.819533135967	2092.906418866895	683.2739967726191	1161.656328114883	
2817	18.77333333333333	2246.746089498231	973.465701007583	909.7669752919239	2140.720993043094	34.05405294409766	1007.205886658813	2167.020675571535	46.98975075843054	968.8878725845329	2154.09564816255	81.93267953459134	1009.417663527194	2183.51396322938	1039.183443455809	878.5509401869499	2366.96044950953	40.4095335893342	1058.173376985831	2341.284146883132	38.82735910963446	941.6960686220054	2082.069658062976	996.6180966763968	992.2713074914695	2236.50406539605	165.8988967859399	948.4716674032554	2196.993441641808	182.661563795667	983.291589981634	2247.959373854932	243.2184566393337	926.9654179273007	2211.744492561422	259.7578396548005	963.6465105415161	2291.607454399727	600.2226177741009	880.3326562336206	2236.747605834732	574.6087168604045	920.137263709961	2233.905353581749	693.1661445572424	864.4751937230169	2182.590083385552	669.4751858784325	902.3679918671312	2257.330196782456	954.5569727224632	1156.754769513763	1772.704401800229	263.6561882706966	1110.006366398465	1682.833111601039	430.4481206861122	1084.847580377216	1702.127498600789	411.6917464778212	1128.494904374013	1733.812851254373	428.3040175999411	1088.226265618124	2218.552156356622	1015.900912612871	1194.334009067563	1731.587452717074	209.930123328171	1059.038559692736	1710.680175247464	240.5745614927082	1171.41919715576	2087.88705932281	994.4233222188039	1095.594163713322	1816.7764748253	400.3227892672527	1148.257664021686	1818.553022801251	430.9598780044047	1107.123105135141	1896.370313304165	422.4747529746401	1166.565054598424	1893.506233820068	455.3566345998842	1124.894267151526	2156.189928619345	563.7092199228825	1196.824527280582	2105.87287195787	567.5209850610282	1142.432054773675	2146.208768938766	671.9063830391108	1210.003092285946	2097.458575103468	676.4112539794658	1161.33100362354	
